<mxfile host="app.diagrams.net" modified="2024-03-28T07:20:46.228Z" agent="Mozilla/5.0 (Macintosh; Intel Mac OS X 10_15_7) AppleWebKit/537.36 (KHTML, like Gecko) Chrome/123.0.0.0 Safari/537.36" etag="a1r09fGbTJZRGLj94kLn" version="24.2.0" type="github" pages="2">
  <diagram name="第 1 页" id="sXI6oTRlvRjUnkQEZYFn">
    <mxGraphModel dx="333" dy="143" grid="1" gridSize="10" guides="1" tooltips="1" connect="1" arrows="1" fold="1" page="1" pageScale="1" pageWidth="827" pageHeight="1169" math="0" shadow="0">
      <root>
        <mxCell id="0" />
        <mxCell id="1" parent="0" />
        <mxCell id="fjcy8U5pSETEeFE4OCs9-12" style="edgeStyle=orthogonalEdgeStyle;rounded=0;orthogonalLoop=1;jettySize=auto;html=1;exitX=0.5;exitY=1;exitDx=0;exitDy=0;entryX=0.5;entryY=0;entryDx=0;entryDy=0;" parent="1" source="fjcy8U5pSETEeFE4OCs9-1" target="fjcy8U5pSETEeFE4OCs9-8" edge="1">
          <mxGeometry relative="1" as="geometry" />
        </mxCell>
        <mxCell id="fjcy8U5pSETEeFE4OCs9-1" value="获取待添加背景音乐的短视频" style="rounded=0;whiteSpace=wrap;html=1;" parent="1" vertex="1">
          <mxGeometry x="20" y="40" width="220" height="60" as="geometry" />
        </mxCell>
        <mxCell id="fjcy8U5pSETEeFE4OCs9-13" style="edgeStyle=orthogonalEdgeStyle;rounded=0;orthogonalLoop=1;jettySize=auto;html=1;exitX=0.5;exitY=1;exitDx=0;exitDy=0;entryX=0.5;entryY=0;entryDx=0;entryDy=0;" parent="1" source="fjcy8U5pSETEeFE4OCs9-8" target="fjcy8U5pSETEeFE4OCs9-10" edge="1">
          <mxGeometry relative="1" as="geometry" />
        </mxCell>
        <mxCell id="fjcy8U5pSETEeFE4OCs9-8" value="将短视频送入视频特征提取模块，获取短视频对应的视频特征向量序列" style="rounded=0;whiteSpace=wrap;html=1;" parent="1" vertex="1">
          <mxGeometry x="20" y="130" width="220" height="60" as="geometry" />
        </mxCell>
        <mxCell id="fjcy8U5pSETEeFE4OCs9-10" value="将视频特征向量序列送入音乐生成模型，为短视频生成对应的背景音乐" style="rounded=0;whiteSpace=wrap;html=1;" parent="1" vertex="1">
          <mxGeometry x="20" y="220" width="220" height="60" as="geometry" />
        </mxCell>
        <mxCell id="fjcy8U5pSETEeFE4OCs9-19" style="edgeStyle=orthogonalEdgeStyle;rounded=0;orthogonalLoop=1;jettySize=auto;html=1;exitX=0.5;exitY=1;exitDx=0;exitDy=0;entryX=0.5;entryY=0;entryDx=0;entryDy=0;" parent="1" source="fjcy8U5pSETEeFE4OCs9-20" target="fjcy8U5pSETEeFE4OCs9-22" edge="1">
          <mxGeometry relative="1" as="geometry" />
        </mxCell>
        <mxCell id="fjcy8U5pSETEeFE4OCs9-20" value="收集带有背景音乐的短视频样本，作为第一数据集；对第一数据集中的短视频进行背景音乐分离；由分离之后的短视频及对应的背景音乐组成第二数据集" style="rounded=0;whiteSpace=wrap;html=1;" parent="1" vertex="1">
          <mxGeometry x="370" y="40" width="280" height="60" as="geometry" />
        </mxCell>
        <mxCell id="fjcy8U5pSETEeFE4OCs9-21" style="edgeStyle=orthogonalEdgeStyle;rounded=0;orthogonalLoop=1;jettySize=auto;html=1;exitX=0.5;exitY=1;exitDx=0;exitDy=0;entryX=0.5;entryY=0;entryDx=0;entryDy=0;" parent="1" source="fjcy8U5pSETEeFE4OCs9-22" target="fjcy8U5pSETEeFE4OCs9-23" edge="1">
          <mxGeometry relative="1" as="geometry" />
        </mxCell>
        <mxCell id="fjcy8U5pSETEeFE4OCs9-22" value="将第二数据集中的短视频送入视频特征提取模块，获取每个短视频的视频特征向量序列，并与背景音乐组成第三数据集" style="rounded=0;whiteSpace=wrap;html=1;" parent="1" vertex="1">
          <mxGeometry x="370" y="130" width="280" height="60" as="geometry" />
        </mxCell>
        <mxCell id="fjcy8U5pSETEeFE4OCs9-23" value="利用第三数据集训练音乐生成模型" style="rounded=0;whiteSpace=wrap;html=1;" parent="1" vertex="1">
          <mxGeometry x="370" y="220" width="280" height="60" as="geometry" />
        </mxCell>
        <mxCell id="2gaOMBExnpWmV6sL_W9Z-5" value="" style="edgeStyle=orthogonalEdgeStyle;rounded=0;orthogonalLoop=1;jettySize=auto;html=1;strokeWidth=2;endSize=3;" parent="1" source="fjcy8U5pSETEeFE4OCs9-24" target="2gaOMBExnpWmV6sL_W9Z-1" edge="1">
          <mxGeometry relative="1" as="geometry">
            <Array as="points">
              <mxPoint x="120" y="510" />
              <mxPoint x="120" y="510" />
            </Array>
          </mxGeometry>
        </mxCell>
        <mxCell id="fjcy8U5pSETEeFE4OCs9-24" value="图像特征提取模块" style="rounded=1;whiteSpace=wrap;html=1;" parent="1" vertex="1">
          <mxGeometry x="60" y="460" width="120" height="30" as="geometry" />
        </mxCell>
        <mxCell id="fjcy8U5pSETEeFE4OCs9-28" value="" style="strokeWidth=2;html=1;shape=mxgraph.flowchart.annotation_2;align=left;labelPosition=right;pointerEvents=1;direction=south;" parent="1" vertex="1">
          <mxGeometry x="120" y="410" width="160" height="40" as="geometry" />
        </mxCell>
        <mxCell id="fjcy8U5pSETEeFE4OCs9-30" value="" style="endArrow=classic;html=1;rounded=0;exitX=1;exitY=0;exitDx=0;exitDy=0;exitPerimeter=0;strokeWidth=2;endSize=2;" parent="1" source="fjcy8U5pSETEeFE4OCs9-28" edge="1">
          <mxGeometry width="50" height="50" relative="1" as="geometry">
            <mxPoint x="310" y="460" as="sourcePoint" />
            <mxPoint x="280" y="460" as="targetPoint" />
          </mxGeometry>
        </mxCell>
        <mxCell id="fjcy8U5pSETEeFE4OCs9-31" value="" style="endArrow=classic;html=1;rounded=0;exitX=1;exitY=0;exitDx=0;exitDy=0;exitPerimeter=0;strokeWidth=2;endSize=3;" parent="1" edge="1">
          <mxGeometry width="50" height="50" relative="1" as="geometry">
            <mxPoint x="120" y="450" as="sourcePoint" />
            <mxPoint x="120" y="460" as="targetPoint" />
          </mxGeometry>
        </mxCell>
        <mxCell id="fjcy8U5pSETEeFE4OCs9-41" value="" style="edgeStyle=orthogonalEdgeStyle;rounded=0;orthogonalLoop=1;jettySize=auto;html=1;strokeWidth=2;endSize=3;entryX=0.5;entryY=0;entryDx=0;entryDy=0;entryPerimeter=0;" parent="1" source="fjcy8U5pSETEeFE4OCs9-39" target="fjcy8U5pSETEeFE4OCs9-40" edge="1">
          <mxGeometry relative="1" as="geometry">
            <Array as="points">
              <mxPoint x="200" y="370" />
              <mxPoint x="200" y="370" />
            </Array>
          </mxGeometry>
        </mxCell>
        <mxCell id="fjcy8U5pSETEeFE4OCs9-39" value="短视频" style="shape=note;whiteSpace=wrap;html=1;backgroundOutline=1;darkOpacity=0.05;size=13;" parent="1" vertex="1">
          <mxGeometry x="140" y="330" width="120" height="30" as="geometry" />
        </mxCell>
        <mxCell id="fjcy8U5pSETEeFE4OCs9-40" value="图像序列" style="shape=note;whiteSpace=wrap;html=1;backgroundOutline=1;darkOpacity=0.05;size=13;" parent="1" vertex="1">
          <mxGeometry x="140" y="380" width="120" height="30" as="geometry" />
        </mxCell>
        <mxCell id="2gaOMBExnpWmV6sL_W9Z-6" value="" style="edgeStyle=orthogonalEdgeStyle;rounded=0;orthogonalLoop=1;jettySize=auto;html=1;strokeWidth=2;endSize=3;entryX=0.5;entryY=0;entryDx=0;entryDy=0;entryPerimeter=0;" parent="1" source="fjcy8U5pSETEeFE4OCs9-43" target="2gaOMBExnpWmV6sL_W9Z-2" edge="1">
          <mxGeometry relative="1" as="geometry">
            <Array as="points">
              <mxPoint x="280" y="510" />
              <mxPoint x="280" y="510" />
            </Array>
          </mxGeometry>
        </mxCell>
        <mxCell id="fjcy8U5pSETEeFE4OCs9-43" value="文本特征提取模块" style="rounded=1;whiteSpace=wrap;html=1;shadow=0;glass=0;" parent="1" vertex="1">
          <mxGeometry x="220" y="460" width="120" height="30" as="geometry" />
        </mxCell>
        <mxCell id="fjcy8U5pSETEeFE4OCs9-49" style="edgeStyle=orthogonalEdgeStyle;rounded=0;orthogonalLoop=1;jettySize=auto;html=1;entryX=0;entryY=0.5;entryDx=0;entryDy=0;" parent="1" target="fjcy8U5pSETEeFE4OCs9-46" edge="1">
          <mxGeometry relative="1" as="geometry">
            <mxPoint x="450" y="350" as="sourcePoint" />
          </mxGeometry>
        </mxCell>
        <mxCell id="fjcy8U5pSETEeFE4OCs9-45" value="编码器模块" style="rounded=1;whiteSpace=wrap;html=1;" parent="1" vertex="1">
          <mxGeometry x="370" y="330" width="80" height="40" as="geometry" />
        </mxCell>
        <mxCell id="fjcy8U5pSETEeFE4OCs9-46" value="解码器模块" style="rounded=1;whiteSpace=wrap;html=1;" parent="1" vertex="1">
          <mxGeometry x="480" y="330" width="80" height="40" as="geometry" />
        </mxCell>
        <mxCell id="fjcy8U5pSETEeFE4OCs9-47" value="视频特征&lt;br&gt;向量序列" style="shape=note;whiteSpace=wrap;html=1;backgroundOutline=1;darkOpacity=0.05;size=13;" parent="1" vertex="1">
          <mxGeometry x="370" y="400" width="80" height="40" as="geometry" />
        </mxCell>
        <mxCell id="fjcy8U5pSETEeFE4OCs9-52" style="edgeStyle=orthogonalEdgeStyle;rounded=0;orthogonalLoop=1;jettySize=auto;html=1;exitX=0.5;exitY=0;exitDx=0;exitDy=0;exitPerimeter=0;entryX=0.5;entryY=1;entryDx=0;entryDy=0;" parent="1" source="fjcy8U5pSETEeFE4OCs9-50" target="fjcy8U5pSETEeFE4OCs9-51" edge="1">
          <mxGeometry relative="1" as="geometry" />
        </mxCell>
        <mxCell id="fjcy8U5pSETEeFE4OCs9-50" value="真实的&lt;br&gt;背景音乐" style="shape=note;whiteSpace=wrap;html=1;backgroundOutline=1;darkOpacity=0.05;size=13;" parent="1" vertex="1">
          <mxGeometry x="480" y="470" width="80" height="40" as="geometry" />
        </mxCell>
        <mxCell id="fjcy8U5pSETEeFE4OCs9-53" style="edgeStyle=orthogonalEdgeStyle;rounded=0;orthogonalLoop=1;jettySize=auto;html=1;exitX=0.5;exitY=0;exitDx=0;exitDy=0;entryX=0.5;entryY=1;entryDx=0;entryDy=0;" parent="1" source="fjcy8U5pSETEeFE4OCs9-51" target="fjcy8U5pSETEeFE4OCs9-46" edge="1">
          <mxGeometry relative="1" as="geometry" />
        </mxCell>
        <mxCell id="fjcy8U5pSETEeFE4OCs9-51" value="量化模块" style="rounded=1;whiteSpace=wrap;html=1;" parent="1" vertex="1">
          <mxGeometry x="480" y="400" width="80" height="40" as="geometry" />
        </mxCell>
        <mxCell id="fjcy8U5pSETEeFE4OCs9-54" style="edgeStyle=orthogonalEdgeStyle;rounded=0;orthogonalLoop=1;jettySize=auto;html=1;entryX=0.5;entryY=1;entryDx=0;entryDy=0;exitX=0.5;exitY=0;exitDx=0;exitDy=0;exitPerimeter=0;" parent="1" source="fjcy8U5pSETEeFE4OCs9-47" target="fjcy8U5pSETEeFE4OCs9-45" edge="1">
          <mxGeometry relative="1" as="geometry">
            <mxPoint x="500" y="410" as="sourcePoint" />
            <mxPoint x="500" y="380" as="targetPoint" />
            <Array as="points">
              <mxPoint x="410" y="390" />
              <mxPoint x="410" y="390" />
            </Array>
          </mxGeometry>
        </mxCell>
        <mxCell id="fjcy8U5pSETEeFE4OCs9-55" value="解量化模块" style="rounded=1;whiteSpace=wrap;html=1;" parent="1" vertex="1">
          <mxGeometry x="590" y="330" width="80" height="40" as="geometry" />
        </mxCell>
        <mxCell id="fjcy8U5pSETEeFE4OCs9-58" value="" style="endArrow=classic;html=1;rounded=0;" parent="1" edge="1">
          <mxGeometry width="50" height="50" relative="1" as="geometry">
            <mxPoint x="560" y="349.76" as="sourcePoint" />
            <mxPoint x="590" y="349.76" as="targetPoint" />
          </mxGeometry>
        </mxCell>
        <mxCell id="fjcy8U5pSETEeFE4OCs9-63" value="预测的&lt;br&gt;背景音乐" style="shape=note;whiteSpace=wrap;html=1;backgroundOutline=1;darkOpacity=0.05;size=13;" parent="1" vertex="1">
          <mxGeometry x="590" y="400" width="80" height="40" as="geometry" />
        </mxCell>
        <mxCell id="fjcy8U5pSETEeFE4OCs9-64" value="" style="endArrow=classic;html=1;rounded=0;exitX=0.5;exitY=1;exitDx=0;exitDy=0;entryX=0.5;entryY=0;entryDx=0;entryDy=0;entryPerimeter=0;" parent="1" source="fjcy8U5pSETEeFE4OCs9-55" target="fjcy8U5pSETEeFE4OCs9-63" edge="1">
          <mxGeometry width="50" height="50" relative="1" as="geometry">
            <mxPoint x="660" y="390" as="sourcePoint" />
            <mxPoint x="690" y="390" as="targetPoint" />
          </mxGeometry>
        </mxCell>
        <mxCell id="2gaOMBExnpWmV6sL_W9Z-1" value="图像特征向量序列" style="shape=note;whiteSpace=wrap;html=1;backgroundOutline=1;darkOpacity=0.05;size=13;" parent="1" vertex="1">
          <mxGeometry x="60" y="510" width="120" height="30" as="geometry" />
        </mxCell>
        <mxCell id="2gaOMBExnpWmV6sL_W9Z-2" value="文本特征向量序列" style="shape=note;whiteSpace=wrap;html=1;backgroundOutline=1;darkOpacity=0.05;size=13;" parent="1" vertex="1">
          <mxGeometry x="220" y="510" width="120" height="30" as="geometry" />
        </mxCell>
        <mxCell id="2gaOMBExnpWmV6sL_W9Z-8" value="" style="strokeWidth=2;html=1;shape=mxgraph.flowchart.annotation_2;align=left;labelPosition=right;pointerEvents=1;direction=south;rotation=-180;" parent="1" vertex="1">
          <mxGeometry x="120" y="540" width="160" height="40" as="geometry" />
        </mxCell>
        <mxCell id="2gaOMBExnpWmV6sL_W9Z-9" value="" style="endArrow=classic;html=1;rounded=0;exitX=1;exitY=0;exitDx=0;exitDy=0;exitPerimeter=0;strokeWidth=2;endSize=2;" parent="1" edge="1">
          <mxGeometry width="50" height="50" relative="1" as="geometry">
            <mxPoint x="199.94" y="580" as="sourcePoint" />
            <mxPoint x="199.94" y="590" as="targetPoint" />
          </mxGeometry>
        </mxCell>
        <mxCell id="2gaOMBExnpWmV6sL_W9Z-12" value="视频特征向量序列" style="shape=note;whiteSpace=wrap;html=1;backgroundOutline=1;darkOpacity=0.05;size=13;" parent="1" vertex="1">
          <mxGeometry x="140" y="590" width="120" height="30" as="geometry" />
        </mxCell>
        <mxCell id="2gaOMBExnpWmV6sL_W9Z-15" value="" style="endArrow=none;html=1;curved=1;" parent="1" edge="1">
          <mxGeometry width="50" height="50" relative="1" as="geometry">
            <mxPoint x="240" y="70" as="sourcePoint" />
            <mxPoint x="280" y="50" as="targetPoint" />
            <Array as="points">
              <mxPoint x="250" y="50" />
            </Array>
          </mxGeometry>
        </mxCell>
        <mxCell id="fL8CKA1pvSmuBGSNxFLF-1" value="S101" style="text;html=1;align=center;verticalAlign=middle;resizable=0;points=[];autosize=1;strokeColor=none;fillColor=none;" parent="1" vertex="1">
          <mxGeometry x="270" y="35" width="50" height="30" as="geometry" />
        </mxCell>
        <mxCell id="fL8CKA1pvSmuBGSNxFLF-2" value="" style="endArrow=none;html=1;curved=1;" parent="1" edge="1">
          <mxGeometry width="50" height="50" relative="1" as="geometry">
            <mxPoint x="240" y="160" as="sourcePoint" />
            <mxPoint x="280" y="140" as="targetPoint" />
            <Array as="points">
              <mxPoint x="250" y="140" />
            </Array>
          </mxGeometry>
        </mxCell>
        <mxCell id="fL8CKA1pvSmuBGSNxFLF-3" value="S102" style="text;html=1;align=center;verticalAlign=middle;resizable=0;points=[];autosize=1;strokeColor=none;fillColor=none;" parent="1" vertex="1">
          <mxGeometry x="270" y="125" width="50" height="30" as="geometry" />
        </mxCell>
        <mxCell id="fL8CKA1pvSmuBGSNxFLF-4" value="" style="endArrow=none;html=1;curved=1;" parent="1" edge="1">
          <mxGeometry width="50" height="50" relative="1" as="geometry">
            <mxPoint x="240" y="250" as="sourcePoint" />
            <mxPoint x="280" y="230" as="targetPoint" />
            <Array as="points">
              <mxPoint x="250" y="230" />
            </Array>
          </mxGeometry>
        </mxCell>
        <mxCell id="fL8CKA1pvSmuBGSNxFLF-5" value="S103" style="text;html=1;align=center;verticalAlign=middle;resizable=0;points=[];autosize=1;strokeColor=none;fillColor=none;" parent="1" vertex="1">
          <mxGeometry x="270" y="215" width="50" height="30" as="geometry" />
        </mxCell>
        <mxCell id="fL8CKA1pvSmuBGSNxFLF-6" value="" style="endArrow=none;html=1;curved=1;" parent="1" edge="1">
          <mxGeometry width="50" height="50" relative="1" as="geometry">
            <mxPoint x="650" y="70" as="sourcePoint" />
            <mxPoint x="690" y="50" as="targetPoint" />
            <Array as="points">
              <mxPoint x="660" y="50" />
            </Array>
          </mxGeometry>
        </mxCell>
        <mxCell id="fL8CKA1pvSmuBGSNxFLF-7" value="S301" style="text;html=1;align=center;verticalAlign=middle;resizable=0;points=[];autosize=1;strokeColor=none;fillColor=none;" parent="1" vertex="1">
          <mxGeometry x="680" y="35" width="50" height="30" as="geometry" />
        </mxCell>
        <mxCell id="fL8CKA1pvSmuBGSNxFLF-8" value="" style="endArrow=none;html=1;curved=1;" parent="1" edge="1">
          <mxGeometry width="50" height="50" relative="1" as="geometry">
            <mxPoint x="650" y="159.5" as="sourcePoint" />
            <mxPoint x="690" y="139.5" as="targetPoint" />
            <Array as="points">
              <mxPoint x="660" y="139.5" />
            </Array>
          </mxGeometry>
        </mxCell>
        <mxCell id="fL8CKA1pvSmuBGSNxFLF-9" value="S302" style="text;html=1;align=center;verticalAlign=middle;resizable=0;points=[];autosize=1;strokeColor=none;fillColor=none;" parent="1" vertex="1">
          <mxGeometry x="680" y="124.5" width="50" height="30" as="geometry" />
        </mxCell>
        <mxCell id="fL8CKA1pvSmuBGSNxFLF-10" value="" style="endArrow=none;html=1;curved=1;" parent="1" edge="1">
          <mxGeometry width="50" height="50" relative="1" as="geometry">
            <mxPoint x="650" y="250" as="sourcePoint" />
            <mxPoint x="690" y="230" as="targetPoint" />
            <Array as="points">
              <mxPoint x="660" y="230" />
            </Array>
          </mxGeometry>
        </mxCell>
        <mxCell id="fL8CKA1pvSmuBGSNxFLF-11" value="S303" style="text;html=1;align=center;verticalAlign=middle;resizable=0;points=[];autosize=1;strokeColor=none;fillColor=none;" parent="1" vertex="1">
          <mxGeometry x="680" y="215" width="50" height="30" as="geometry" />
        </mxCell>
      </root>
    </mxGraphModel>
  </diagram>
  <diagram id="onHdlAXca8kfHebG5J2O" name="第 2 页">
    <mxGraphModel dx="819" dy="351" grid="1" gridSize="10" guides="1" tooltips="1" connect="1" arrows="1" fold="1" page="1" pageScale="1" pageWidth="827" pageHeight="1169" math="0" shadow="0">
      <root>
        <mxCell id="0" />
        <mxCell id="1" parent="0" />
        <mxCell id="yNqTcB2FshbZ3qleE_a6-1" style="edgeStyle=orthogonalEdgeStyle;rounded=0;orthogonalLoop=1;jettySize=auto;html=1;exitX=0.5;exitY=1;exitDx=0;exitDy=0;entryX=0.5;entryY=0;entryDx=0;entryDy=0;" edge="1" parent="1" source="yNqTcB2FshbZ3qleE_a6-2" target="yNqTcB2FshbZ3qleE_a6-4">
          <mxGeometry relative="1" as="geometry" />
        </mxCell>
        <mxCell id="yNqTcB2FshbZ3qleE_a6-2" value="准备待合成文本内容" style="rounded=0;whiteSpace=wrap;html=1;" vertex="1" parent="1">
          <mxGeometry x="53" y="40" width="220" height="60" as="geometry" />
        </mxCell>
        <mxCell id="yNqTcB2FshbZ3qleE_a6-3" style="edgeStyle=orthogonalEdgeStyle;rounded=0;orthogonalLoop=1;jettySize=auto;html=1;exitX=0.5;exitY=1;exitDx=0;exitDy=0;entryX=0.5;entryY=0;entryDx=0;entryDy=0;" edge="1" parent="1" source="yNqTcB2FshbZ3qleE_a6-4" target="yNqTcB2FshbZ3qleE_a6-5">
          <mxGeometry relative="1" as="geometry" />
        </mxCell>
        <mxCell id="yNqTcB2FshbZ3qleE_a6-4" value="训练男声音色模型和女声音色模型，并通过融合策略和中性音色评分机制得到中性音色提示音频和中性音色模型。" style="rounded=0;whiteSpace=wrap;html=1;" vertex="1" parent="1">
          <mxGeometry x="53" y="130" width="220" height="60" as="geometry" />
        </mxCell>
        <mxCell id="yNqTcB2FshbZ3qleE_a6-5" value="将待合成文本内容及中性音色提示音频送入中性音色模型，得到文本内容对应的中性音色音频" style="rounded=0;whiteSpace=wrap;html=1;" vertex="1" parent="1">
          <mxGeometry x="53" y="220" width="220" height="60" as="geometry" />
        </mxCell>
        <mxCell id="yNqTcB2FshbZ3qleE_a6-6" style="edgeStyle=orthogonalEdgeStyle;rounded=0;orthogonalLoop=1;jettySize=auto;html=1;exitX=0.5;exitY=1;exitDx=0;exitDy=0;entryX=0.5;entryY=0;entryDx=0;entryDy=0;" edge="1" parent="1" source="yNqTcB2FshbZ3qleE_a6-7" target="yNqTcB2FshbZ3qleE_a6-9">
          <mxGeometry relative="1" as="geometry" />
        </mxCell>
        <mxCell id="yNqTcB2FshbZ3qleE_a6-7" value="利用男声和女声数据集训练男声音色模型及女声音色模型。采用不同加权系数对两者进行融合得到n个混合音色模型。" style="rounded=0;whiteSpace=wrap;html=1;" vertex="1" parent="1">
          <mxGeometry x="403" y="40" width="280" height="60" as="geometry" />
        </mxCell>
        <mxCell id="yNqTcB2FshbZ3qleE_a6-8" style="edgeStyle=orthogonalEdgeStyle;rounded=0;orthogonalLoop=1;jettySize=auto;html=1;exitX=0.5;exitY=1;exitDx=0;exitDy=0;entryX=0.5;entryY=0;entryDx=0;entryDy=0;" edge="1" parent="1" source="yNqTcB2FshbZ3qleE_a6-9" target="yNqTcB2FshbZ3qleE_a6-10">
          <mxGeometry relative="1" as="geometry" />
        </mxCell>
        <mxCell id="yNqTcB2FshbZ3qleE_a6-9" value="&lt;div&gt;&lt;span style=&quot;background-color: initial;&quot;&gt;将男声提示音频送入女声音色模型，得到浅融合提示音频_1；将女声提示音频送入男声音色模型，得到浅融合提示音频_2。&lt;/span&gt;&lt;br&gt;&lt;/div&gt;" style="rounded=0;whiteSpace=wrap;html=1;" vertex="1" parent="1">
          <mxGeometry x="403" y="130" width="280" height="60" as="geometry" />
        </mxCell>
        <mxCell id="yNqTcB2FshbZ3qleE_a6-10" value="两条浅融合提示音频送入n个混合音色模型，获取2n条深融合提示音频。" style="rounded=0;whiteSpace=wrap;html=1;" vertex="1" parent="1">
          <mxGeometry x="403" y="220" width="280" height="60" as="geometry" />
        </mxCell>
        <mxCell id="yNqTcB2FshbZ3qleE_a6-11" value="" style="endArrow=none;html=1;curved=1;" edge="1" parent="1">
          <mxGeometry width="50" height="50" relative="1" as="geometry">
            <mxPoint x="273" y="70" as="sourcePoint" />
            <mxPoint x="313" y="50" as="targetPoint" />
            <Array as="points">
              <mxPoint x="283" y="50" />
            </Array>
          </mxGeometry>
        </mxCell>
        <mxCell id="yNqTcB2FshbZ3qleE_a6-12" value="S101" style="text;html=1;align=center;verticalAlign=middle;resizable=0;points=[];autosize=1;strokeColor=none;fillColor=none;" vertex="1" parent="1">
          <mxGeometry x="303" y="35" width="50" height="30" as="geometry" />
        </mxCell>
        <mxCell id="yNqTcB2FshbZ3qleE_a6-13" value="" style="endArrow=none;html=1;curved=1;" edge="1" parent="1">
          <mxGeometry width="50" height="50" relative="1" as="geometry">
            <mxPoint x="273" y="160" as="sourcePoint" />
            <mxPoint x="313" y="140" as="targetPoint" />
            <Array as="points">
              <mxPoint x="283" y="140" />
            </Array>
          </mxGeometry>
        </mxCell>
        <mxCell id="yNqTcB2FshbZ3qleE_a6-14" value="S102" style="text;html=1;align=center;verticalAlign=middle;resizable=0;points=[];autosize=1;strokeColor=none;fillColor=none;" vertex="1" parent="1">
          <mxGeometry x="303" y="125" width="50" height="30" as="geometry" />
        </mxCell>
        <mxCell id="yNqTcB2FshbZ3qleE_a6-15" value="" style="endArrow=none;html=1;curved=1;" edge="1" parent="1">
          <mxGeometry width="50" height="50" relative="1" as="geometry">
            <mxPoint x="273" y="250" as="sourcePoint" />
            <mxPoint x="313" y="230" as="targetPoint" />
            <Array as="points">
              <mxPoint x="283" y="230" />
            </Array>
          </mxGeometry>
        </mxCell>
        <mxCell id="yNqTcB2FshbZ3qleE_a6-16" value="S103" style="text;html=1;align=center;verticalAlign=middle;resizable=0;points=[];autosize=1;strokeColor=none;fillColor=none;" vertex="1" parent="1">
          <mxGeometry x="303" y="215" width="50" height="30" as="geometry" />
        </mxCell>
        <mxCell id="yNqTcB2FshbZ3qleE_a6-17" value="" style="endArrow=none;html=1;curved=1;" edge="1" parent="1">
          <mxGeometry width="50" height="50" relative="1" as="geometry">
            <mxPoint x="683" y="70" as="sourcePoint" />
            <mxPoint x="723" y="50" as="targetPoint" />
            <Array as="points">
              <mxPoint x="693" y="50" />
            </Array>
          </mxGeometry>
        </mxCell>
        <mxCell id="yNqTcB2FshbZ3qleE_a6-18" value="S201" style="text;html=1;align=center;verticalAlign=middle;resizable=0;points=[];autosize=1;strokeColor=none;fillColor=none;" vertex="1" parent="1">
          <mxGeometry x="713" y="35" width="50" height="30" as="geometry" />
        </mxCell>
        <mxCell id="yNqTcB2FshbZ3qleE_a6-19" value="" style="endArrow=none;html=1;curved=1;" edge="1" parent="1">
          <mxGeometry width="50" height="50" relative="1" as="geometry">
            <mxPoint x="683" y="159.5" as="sourcePoint" />
            <mxPoint x="723" y="139.5" as="targetPoint" />
            <Array as="points">
              <mxPoint x="693" y="139.5" />
            </Array>
          </mxGeometry>
        </mxCell>
        <mxCell id="yNqTcB2FshbZ3qleE_a6-20" value="S202" style="text;html=1;align=center;verticalAlign=middle;resizable=0;points=[];autosize=1;strokeColor=none;fillColor=none;" vertex="1" parent="1">
          <mxGeometry x="713" y="124.5" width="50" height="30" as="geometry" />
        </mxCell>
        <mxCell id="yNqTcB2FshbZ3qleE_a6-21" value="" style="endArrow=none;html=1;curved=1;" edge="1" parent="1">
          <mxGeometry width="50" height="50" relative="1" as="geometry">
            <mxPoint x="683" y="250" as="sourcePoint" />
            <mxPoint x="723" y="230" as="targetPoint" />
            <Array as="points">
              <mxPoint x="693" y="230" />
            </Array>
          </mxGeometry>
        </mxCell>
        <mxCell id="yNqTcB2FshbZ3qleE_a6-22" value="S203" style="text;html=1;align=center;verticalAlign=middle;resizable=0;points=[];autosize=1;strokeColor=none;fillColor=none;" vertex="1" parent="1">
          <mxGeometry x="713" y="215" width="50" height="30" as="geometry" />
        </mxCell>
        <mxCell id="yNqTcB2FshbZ3qleE_a6-23" style="edgeStyle=orthogonalEdgeStyle;rounded=0;orthogonalLoop=1;jettySize=auto;html=1;exitX=0.5;exitY=1;exitDx=0;exitDy=0;entryX=0.5;entryY=0;entryDx=0;entryDy=0;" edge="1" parent="1" target="yNqTcB2FshbZ3qleE_a6-24">
          <mxGeometry relative="1" as="geometry">
            <mxPoint x="543" y="280" as="sourcePoint" />
          </mxGeometry>
        </mxCell>
        <mxCell id="yNqTcB2FshbZ3qleE_a6-24" value="利用语音性别分类模型对2n条深融合提示音频进行中性音色评分，将得分最高的音频和对应的混合音色模型分别作为中性音色提示音频和中性音色模型。" style="rounded=0;whiteSpace=wrap;html=1;" vertex="1" parent="1">
          <mxGeometry x="403" y="310" width="280" height="60" as="geometry" />
        </mxCell>
        <mxCell id="yNqTcB2FshbZ3qleE_a6-25" value="" style="endArrow=none;html=1;curved=1;" edge="1" parent="1">
          <mxGeometry width="50" height="50" relative="1" as="geometry">
            <mxPoint x="683" y="340" as="sourcePoint" />
            <mxPoint x="723" y="320" as="targetPoint" />
            <Array as="points">
              <mxPoint x="693" y="320" />
            </Array>
          </mxGeometry>
        </mxCell>
        <mxCell id="yNqTcB2FshbZ3qleE_a6-26" value="S203" style="text;html=1;align=center;verticalAlign=middle;resizable=0;points=[];autosize=1;strokeColor=none;fillColor=none;" vertex="1" parent="1">
          <mxGeometry x="713" y="305" width="50" height="30" as="geometry" />
        </mxCell>
        <mxCell id="8O_ogqw44qtS7oC-mRtf-48" style="edgeStyle=orthogonalEdgeStyle;rounded=0;orthogonalLoop=1;jettySize=auto;html=1;entryX=0.5;entryY=0;entryDx=0;entryDy=0;" edge="1" parent="1" source="8O_ogqw44qtS7oC-mRtf-1" target="8O_ogqw44qtS7oC-mRtf-3">
          <mxGeometry relative="1" as="geometry" />
        </mxCell>
        <mxCell id="8O_ogqw44qtS7oC-mRtf-1" value="文本内容" style="text;html=1;align=center;verticalAlign=middle;whiteSpace=wrap;rounded=0;" vertex="1" parent="1">
          <mxGeometry x="140" y="416" width="60" height="20" as="geometry" />
        </mxCell>
        <mxCell id="8O_ogqw44qtS7oC-mRtf-46" style="edgeStyle=orthogonalEdgeStyle;rounded=0;orthogonalLoop=1;jettySize=auto;html=1;entryX=0;entryY=0.5;entryDx=0;entryDy=0;" edge="1" parent="1" source="8O_ogqw44qtS7oC-mRtf-2" target="8O_ogqw44qtS7oC-mRtf-3">
          <mxGeometry relative="1" as="geometry" />
        </mxCell>
        <mxCell id="8O_ogqw44qtS7oC-mRtf-2" value="女声提示音频" style="text;html=1;align=center;verticalAlign=middle;whiteSpace=wrap;rounded=0;" vertex="1" parent="1">
          <mxGeometry x="17" y="466" width="80" height="20" as="geometry" />
        </mxCell>
        <mxCell id="8O_ogqw44qtS7oC-mRtf-13" style="edgeStyle=orthogonalEdgeStyle;rounded=0;orthogonalLoop=1;jettySize=auto;html=1;exitX=0.5;exitY=1;exitDx=0;exitDy=0;entryX=0.5;entryY=0;entryDx=0;entryDy=0;" edge="1" parent="1" source="8O_ogqw44qtS7oC-mRtf-3" target="8O_ogqw44qtS7oC-mRtf-6">
          <mxGeometry relative="1" as="geometry" />
        </mxCell>
        <mxCell id="8O_ogqw44qtS7oC-mRtf-3" value="男声音色模型" style="rounded=1;whiteSpace=wrap;html=1;" vertex="1" parent="1">
          <mxGeometry x="120" y="456" width="100" height="40" as="geometry" />
        </mxCell>
        <mxCell id="8O_ogqw44qtS7oC-mRtf-15" style="edgeStyle=orthogonalEdgeStyle;rounded=0;orthogonalLoop=1;jettySize=auto;html=1;exitX=0.5;exitY=1;exitDx=0;exitDy=0;entryX=0.5;entryY=0;entryDx=0;entryDy=0;" edge="1" parent="1" source="8O_ogqw44qtS7oC-mRtf-5" target="8O_ogqw44qtS7oC-mRtf-8">
          <mxGeometry relative="1" as="geometry" />
        </mxCell>
        <mxCell id="8O_ogqw44qtS7oC-mRtf-5" value="男声音色模型" style="rounded=1;whiteSpace=wrap;html=1;" vertex="1" parent="1">
          <mxGeometry x="403" y="456" width="100" height="40" as="geometry" />
        </mxCell>
        <mxCell id="8O_ogqw44qtS7oC-mRtf-14" style="edgeStyle=orthogonalEdgeStyle;rounded=0;orthogonalLoop=1;jettySize=auto;html=1;exitX=0.5;exitY=1;exitDx=0;exitDy=0;entryX=0.5;entryY=0;entryDx=0;entryDy=0;" edge="1" parent="1" source="8O_ogqw44qtS7oC-mRtf-6" target="8O_ogqw44qtS7oC-mRtf-9">
          <mxGeometry relative="1" as="geometry" />
        </mxCell>
        <mxCell id="8O_ogqw44qtS7oC-mRtf-18" style="rounded=0;orthogonalLoop=1;jettySize=auto;html=1;exitX=0.5;exitY=1;exitDx=0;exitDy=0;entryX=0.03;entryY=0.017;entryDx=0;entryDy=0;entryPerimeter=0;" edge="1" parent="1" source="8O_ogqw44qtS7oC-mRtf-6" target="8O_ogqw44qtS7oC-mRtf-11">
          <mxGeometry relative="1" as="geometry" />
        </mxCell>
        <mxCell id="8O_ogqw44qtS7oC-mRtf-19" style="rounded=0;orthogonalLoop=1;jettySize=auto;html=1;exitX=0.5;exitY=1;exitDx=0;exitDy=0;entryX=0.033;entryY=0.025;entryDx=0;entryDy=0;entryPerimeter=0;" edge="1" parent="1" source="8O_ogqw44qtS7oC-mRtf-6" target="8O_ogqw44qtS7oC-mRtf-10">
          <mxGeometry relative="1" as="geometry" />
        </mxCell>
        <mxCell id="8O_ogqw44qtS7oC-mRtf-6" value="浅融合提示音频_1" style="text;html=1;align=center;verticalAlign=middle;whiteSpace=wrap;rounded=0;" vertex="1" parent="1">
          <mxGeometry x="115" y="516" width="110" height="20" as="geometry" />
        </mxCell>
        <mxCell id="8O_ogqw44qtS7oC-mRtf-47" style="edgeStyle=orthogonalEdgeStyle;rounded=0;orthogonalLoop=1;jettySize=auto;html=1;entryX=1;entryY=0.5;entryDx=0;entryDy=0;" edge="1" parent="1" source="8O_ogqw44qtS7oC-mRtf-7" target="8O_ogqw44qtS7oC-mRtf-5">
          <mxGeometry relative="1" as="geometry" />
        </mxCell>
        <mxCell id="8O_ogqw44qtS7oC-mRtf-7" value="男声提示音频" style="text;html=1;align=center;verticalAlign=middle;whiteSpace=wrap;rounded=0;" vertex="1" parent="1">
          <mxGeometry x="527" y="466" width="80" height="20" as="geometry" />
        </mxCell>
        <mxCell id="8O_ogqw44qtS7oC-mRtf-16" style="edgeStyle=orthogonalEdgeStyle;rounded=0;orthogonalLoop=1;jettySize=auto;html=1;exitX=0.5;exitY=1;exitDx=0;exitDy=0;entryX=0.5;entryY=0;entryDx=0;entryDy=0;" edge="1" parent="1" source="8O_ogqw44qtS7oC-mRtf-8" target="8O_ogqw44qtS7oC-mRtf-10">
          <mxGeometry relative="1" as="geometry" />
        </mxCell>
        <mxCell id="8O_ogqw44qtS7oC-mRtf-20" style="rounded=0;orthogonalLoop=1;jettySize=auto;html=1;exitX=0.5;exitY=1;exitDx=0;exitDy=0;entryX=0.967;entryY=0.025;entryDx=0;entryDy=0;entryPerimeter=0;" edge="1" parent="1" source="8O_ogqw44qtS7oC-mRtf-8" target="8O_ogqw44qtS7oC-mRtf-11">
          <mxGeometry relative="1" as="geometry" />
        </mxCell>
        <mxCell id="8O_ogqw44qtS7oC-mRtf-8" value="浅融合提示音频_2" style="text;html=1;align=center;verticalAlign=middle;whiteSpace=wrap;rounded=0;" vertex="1" parent="1">
          <mxGeometry x="398" y="516" width="110" height="20" as="geometry" />
        </mxCell>
        <mxCell id="8O_ogqw44qtS7oC-mRtf-33" style="rounded=0;orthogonalLoop=1;jettySize=auto;html=1;exitX=0.179;exitY=1.005;exitDx=0;exitDy=0;exitPerimeter=0;" edge="1" parent="1" source="8O_ogqw44qtS7oC-mRtf-9">
          <mxGeometry relative="1" as="geometry">
            <mxPoint x="135.20000000000002" y="607" as="sourcePoint" />
            <mxPoint x="137.8" y="627" as="targetPoint" />
          </mxGeometry>
        </mxCell>
        <mxCell id="8O_ogqw44qtS7oC-mRtf-9" value="混合音色模型_1" style="rounded=1;whiteSpace=wrap;html=1;" vertex="1" parent="1">
          <mxGeometry x="120" y="560" width="100" height="40" as="geometry" />
        </mxCell>
        <mxCell id="8O_ogqw44qtS7oC-mRtf-10" value="混合音色模型_n" style="rounded=1;whiteSpace=wrap;html=1;" vertex="1" parent="1">
          <mxGeometry x="403" y="560" width="100" height="40" as="geometry" />
        </mxCell>
        <mxCell id="8O_ogqw44qtS7oC-mRtf-11" value="混合音色模型_2" style="rounded=1;whiteSpace=wrap;html=1;" vertex="1" parent="1">
          <mxGeometry x="253" y="560" width="100" height="40" as="geometry" />
        </mxCell>
        <mxCell id="8O_ogqw44qtS7oC-mRtf-12" value="......" style="text;html=1;align=center;verticalAlign=middle;whiteSpace=wrap;rounded=0;" vertex="1" parent="1">
          <mxGeometry x="347" y="562" width="60" height="30" as="geometry" />
        </mxCell>
        <mxCell id="8O_ogqw44qtS7oC-mRtf-23" style="rounded=0;orthogonalLoop=1;jettySize=auto;html=1;exitX=0.5;exitY=1;exitDx=0;exitDy=0;entryX=0.953;entryY=0;entryDx=0;entryDy=0;entryPerimeter=0;" edge="1" parent="1" source="8O_ogqw44qtS7oC-mRtf-8" target="8O_ogqw44qtS7oC-mRtf-9">
          <mxGeometry relative="1" as="geometry" />
        </mxCell>
        <mxCell id="8O_ogqw44qtS7oC-mRtf-24" value="深融合&lt;div&gt;提示音频_1&lt;/div&gt;" style="text;html=1;align=center;verticalAlign=middle;whiteSpace=wrap;rounded=0;" vertex="1" parent="1">
          <mxGeometry x="105" y="630" width="65" height="20" as="geometry" />
        </mxCell>
        <mxCell id="8O_ogqw44qtS7oC-mRtf-26" value="......" style="text;html=1;align=center;verticalAlign=middle;whiteSpace=wrap;rounded=0;" vertex="1" parent="1">
          <mxGeometry x="347" y="617" width="60" height="30" as="geometry" />
        </mxCell>
        <mxCell id="8O_ogqw44qtS7oC-mRtf-28" value="深融合&lt;div&gt;提示音频_2&lt;/div&gt;" style="text;html=1;align=center;verticalAlign=middle;whiteSpace=wrap;rounded=0;" vertex="1" parent="1">
          <mxGeometry x="168" y="630" width="65" height="20" as="geometry" />
        </mxCell>
        <mxCell id="8O_ogqw44qtS7oC-mRtf-30" value="深融合&lt;div&gt;提示音频_3&lt;/div&gt;" style="text;html=1;align=center;verticalAlign=middle;whiteSpace=wrap;rounded=0;" vertex="1" parent="1">
          <mxGeometry x="238" y="630" width="65" height="20" as="geometry" />
        </mxCell>
        <mxCell id="8O_ogqw44qtS7oC-mRtf-37" style="rounded=0;orthogonalLoop=1;jettySize=auto;html=1;exitX=0.179;exitY=1.005;exitDx=0;exitDy=0;exitPerimeter=0;" edge="1" parent="1">
          <mxGeometry relative="1" as="geometry">
            <mxPoint x="200.2" y="600" as="sourcePoint" />
            <mxPoint x="200" y="627" as="targetPoint" />
          </mxGeometry>
        </mxCell>
        <mxCell id="8O_ogqw44qtS7oC-mRtf-38" style="rounded=0;orthogonalLoop=1;jettySize=auto;html=1;exitX=0.179;exitY=1.005;exitDx=0;exitDy=0;exitPerimeter=0;" edge="1" parent="1">
          <mxGeometry relative="1" as="geometry">
            <mxPoint x="270.53" y="600" as="sourcePoint" />
            <mxPoint x="270.33000000000004" y="627" as="targetPoint" />
          </mxGeometry>
        </mxCell>
        <mxCell id="8O_ogqw44qtS7oC-mRtf-41" value="深融合&lt;div&gt;提示音频_2n&lt;/div&gt;" style="text;html=1;align=center;verticalAlign=middle;whiteSpace=wrap;rounded=0;" vertex="1" parent="1">
          <mxGeometry x="440" y="630" width="90" height="20" as="geometry" />
        </mxCell>
        <mxCell id="8O_ogqw44qtS7oC-mRtf-43" style="rounded=0;orthogonalLoop=1;jettySize=auto;html=1;exitX=0.179;exitY=1.005;exitDx=0;exitDy=0;exitPerimeter=0;" edge="1" parent="1">
          <mxGeometry relative="1" as="geometry">
            <mxPoint x="485.53" y="600" as="sourcePoint" />
            <mxPoint x="485.33000000000004" y="627" as="targetPoint" />
          </mxGeometry>
        </mxCell>
        <mxCell id="8O_ogqw44qtS7oC-mRtf-44" value="......" style="text;html=1;align=center;verticalAlign=middle;whiteSpace=wrap;rounded=0;" vertex="1" parent="1">
          <mxGeometry x="393" y="617" width="60" height="30" as="geometry" />
        </mxCell>
        <mxCell id="8O_ogqw44qtS7oC-mRtf-45" value="......" style="text;html=1;align=center;verticalAlign=middle;whiteSpace=wrap;rounded=0;" vertex="1" parent="1">
          <mxGeometry x="303" y="617" width="60" height="30" as="geometry" />
        </mxCell>
        <mxCell id="8O_ogqw44qtS7oC-mRtf-49" style="edgeStyle=orthogonalEdgeStyle;rounded=0;orthogonalLoop=1;jettySize=auto;html=1;entryX=0.5;entryY=0;entryDx=0;entryDy=0;" edge="1" parent="1" source="8O_ogqw44qtS7oC-mRtf-50">
          <mxGeometry relative="1" as="geometry">
            <mxPoint x="453" y="456" as="targetPoint" />
          </mxGeometry>
        </mxCell>
        <mxCell id="8O_ogqw44qtS7oC-mRtf-50" value="文本内容" style="text;html=1;align=center;verticalAlign=middle;whiteSpace=wrap;rounded=0;" vertex="1" parent="1">
          <mxGeometry x="423" y="416" width="60" height="20" as="geometry" />
        </mxCell>
        <mxCell id="8O_ogqw44qtS7oC-mRtf-54" value="" style="html=1;shadow=0;dashed=0;align=center;verticalAlign=middle;shape=mxgraph.arrows2.arrow;dy=0.69;dx=11.02;flipH=1;notch=0;rotation=-90;gradientColor=none;" vertex="1" parent="1">
          <mxGeometry x="288.43" y="664.43" width="29.13" height="10" as="geometry" />
        </mxCell>
        <mxCell id="8O_ogqw44qtS7oC-mRtf-58" value="中性音色评分" style="shape=parallelogram;perimeter=parallelogramPerimeter;whiteSpace=wrap;html=1;fixedSize=1;" vertex="1" parent="1">
          <mxGeometry x="233" y="687" width="140" height="27" as="geometry" />
        </mxCell>
        <mxCell id="8O_ogqw44qtS7oC-mRtf-63" value="中性音色提示音频&amp;nbsp; &amp;nbsp; &amp;nbsp; 中性音色模型" style="text;html=1;align=center;verticalAlign=middle;whiteSpace=wrap;rounded=0;" vertex="1" parent="1">
          <mxGeometry x="143.5" y="744" width="294.5" height="20" as="geometry" />
        </mxCell>
        <mxCell id="8O_ogqw44qtS7oC-mRtf-68" value="" style="html=1;shadow=0;dashed=0;align=center;verticalAlign=middle;shape=mxgraph.arrows2.arrow;dy=0.69;dx=11.02;flipH=1;notch=0;rotation=-90;gradientColor=none;" vertex="1" parent="1">
          <mxGeometry x="288.43" y="727" width="29.13" height="10" as="geometry" />
        </mxCell>
        <mxCell id="C4bv23QYyMCPdj4Vplls-20" style="edgeStyle=orthogonalEdgeStyle;rounded=0;orthogonalLoop=1;jettySize=auto;html=1;exitX=0.5;exitY=1;exitDx=0;exitDy=0;entryX=0.5;entryY=0;entryDx=0;entryDy=0;strokeWidth=2;endSize=3;" edge="1" parent="1" source="C4bv23QYyMCPdj4Vplls-15" target="C4bv23QYyMCPdj4Vplls-18">
          <mxGeometry relative="1" as="geometry" />
        </mxCell>
        <mxCell id="C4bv23QYyMCPdj4Vplls-15" value="提示音频" style="text;html=1;align=center;verticalAlign=middle;whiteSpace=wrap;rounded=0;" vertex="1" parent="1">
          <mxGeometry x="135" y="830" width="60" height="20" as="geometry" />
        </mxCell>
        <mxCell id="C4bv23QYyMCPdj4Vplls-16" value="待合成文本" style="text;html=1;align=center;verticalAlign=middle;whiteSpace=wrap;rounded=0;" vertex="1" parent="1">
          <mxGeometry x="219.25" y="830" width="97" height="20" as="geometry" />
        </mxCell>
        <mxCell id="C4bv23QYyMCPdj4Vplls-17" value="文本编码器模块" style="rounded=1;whiteSpace=wrap;html=1;" vertex="1" parent="1">
          <mxGeometry x="231.5" y="870" width="70.5" height="30" as="geometry" />
        </mxCell>
        <mxCell id="C4bv23QYyMCPdj4Vplls-18" value="说话人特征提取模块" style="rounded=1;whiteSpace=wrap;html=1;" vertex="1" parent="1">
          <mxGeometry x="130" y="870" width="70" height="30" as="geometry" />
        </mxCell>
        <mxCell id="i9zNR6A5sgRY8K07k20W-2" value="" style="strokeWidth=2;html=1;shape=mxgraph.flowchart.annotation_2;align=left;labelPosition=right;pointerEvents=1;direction=south;rotation=-180;" vertex="1" parent="1">
          <mxGeometry x="164.5" y="900" width="204" height="40" as="geometry" />
        </mxCell>
        <mxCell id="hdu95HzhLFnfHLwcE-8S-1" style="edgeStyle=orthogonalEdgeStyle;rounded=0;orthogonalLoop=1;jettySize=auto;html=1;exitX=0.5;exitY=1;exitDx=0;exitDy=0;entryX=0.5;entryY=0;entryDx=0;entryDy=0;strokeWidth=2;endSize=3;" edge="1" parent="1">
          <mxGeometry relative="1" as="geometry">
            <mxPoint x="266.58" y="850" as="sourcePoint" />
            <mxPoint x="266.58" y="870" as="targetPoint" />
            <Array as="points">
              <mxPoint x="266.58" y="860" />
              <mxPoint x="266.58" y="860" />
            </Array>
          </mxGeometry>
        </mxCell>
        <mxCell id="hdu95HzhLFnfHLwcE-8S-3" value="音频量化&lt;div&gt;模块&lt;/div&gt;" style="rounded=1;whiteSpace=wrap;html=1;" vertex="1" parent="1">
          <mxGeometry x="332.5" y="870" width="70.5" height="30" as="geometry" />
        </mxCell>
        <mxCell id="hdu95HzhLFnfHLwcE-8S-4" value="训练音频" style="text;html=1;align=center;verticalAlign=middle;whiteSpace=wrap;rounded=0;" vertex="1" parent="1">
          <mxGeometry x="319.25" y="830" width="97" height="20" as="geometry" />
        </mxCell>
        <mxCell id="hdu95HzhLFnfHLwcE-8S-5" style="edgeStyle=orthogonalEdgeStyle;rounded=0;orthogonalLoop=1;jettySize=auto;html=1;exitX=0.5;exitY=1;exitDx=0;exitDy=0;entryX=0.5;entryY=0;entryDx=0;entryDy=0;strokeWidth=2;endSize=3;" edge="1" parent="1">
          <mxGeometry relative="1" as="geometry">
            <mxPoint x="367.58" y="850" as="sourcePoint" />
            <mxPoint x="367.58" y="870" as="targetPoint" />
            <Array as="points">
              <mxPoint x="367.58" y="860" />
              <mxPoint x="367.58" y="860" />
            </Array>
          </mxGeometry>
        </mxCell>
        <mxCell id="hdu95HzhLFnfHLwcE-8S-7" style="edgeStyle=orthogonalEdgeStyle;rounded=0;orthogonalLoop=1;jettySize=auto;html=1;exitX=1;exitY=0.5;exitDx=0;exitDy=0;exitPerimeter=0;entryX=0.527;entryY=0.5;entryDx=0;entryDy=0;entryPerimeter=0;endArrow=none;endFill=0;strokeWidth=2;endSize=3;" edge="1" parent="1" source="i9zNR6A5sgRY8K07k20W-2">
          <mxGeometry relative="1" as="geometry">
            <mxPoint x="266.53000000000003" y="901" as="sourcePoint" />
            <mxPoint x="266.43" y="919.9200000000001" as="targetPoint" />
          </mxGeometry>
        </mxCell>
        <mxCell id="hdu95HzhLFnfHLwcE-8S-11" style="rounded=0;orthogonalLoop=1;jettySize=auto;html=1;exitX=1;exitY=0.5;exitDx=0;exitDy=0;entryX=0;entryY=0.5;entryDx=0;entryDy=0;strokeWidth=2;endSize=3;" edge="1" parent="1" source="hdu95HzhLFnfHLwcE-8S-8" target="hdu95HzhLFnfHLwcE-8S-9">
          <mxGeometry relative="1" as="geometry" />
        </mxCell>
        <mxCell id="hdu95HzhLFnfHLwcE-8S-8" value="解码器模块" style="rounded=1;whiteSpace=wrap;html=1;" vertex="1" parent="1">
          <mxGeometry x="231.25" y="942" width="70.5" height="30" as="geometry" />
        </mxCell>
        <mxCell id="hdu95HzhLFnfHLwcE-8S-9" value="解量化模块" style="rounded=1;whiteSpace=wrap;html=1;" vertex="1" parent="1">
          <mxGeometry x="332.5" y="942" width="70.5" height="30" as="geometry" />
        </mxCell>
        <mxCell id="hdu95HzhLFnfHLwcE-8S-10" style="edgeStyle=orthogonalEdgeStyle;rounded=0;orthogonalLoop=1;jettySize=auto;html=1;entryX=0.5;entryY=0;entryDx=0;entryDy=0;strokeWidth=2;endSize=3;targetPerimeterSpacing=0;sourcePerimeterSpacing=0;exitX=0.052;exitY=0.5;exitDx=0;exitDy=0;exitPerimeter=0;" edge="1" parent="1">
          <mxGeometry relative="1" as="geometry">
            <mxPoint x="266.51" y="937.9200000000001" as="sourcePoint" />
            <mxPoint x="266.44" y="942" as="targetPoint" />
            <Array as="points">
              <mxPoint x="267.01" y="940" />
              <mxPoint x="266.01" y="940" />
            </Array>
          </mxGeometry>
        </mxCell>
        <mxCell id="hdu95HzhLFnfHLwcE-8S-14" style="rounded=0;orthogonalLoop=1;jettySize=auto;html=1;exitX=1;exitY=0.5;exitDx=0;exitDy=0;entryX=0;entryY=0.5;entryDx=0;entryDy=0;strokeWidth=2;endSize=3;" edge="1" parent="1">
          <mxGeometry relative="1" as="geometry">
            <mxPoint x="403" y="956.83" as="sourcePoint" />
            <mxPoint x="434" y="956.83" as="targetPoint" />
          </mxGeometry>
        </mxCell>
        <mxCell id="hdu95HzhLFnfHLwcE-8S-15" value="预测音频" style="text;html=1;align=center;verticalAlign=middle;whiteSpace=wrap;rounded=0;" vertex="1" parent="1">
          <mxGeometry x="412" y="947" width="97" height="20" as="geometry" />
        </mxCell>
      </root>
    </mxGraphModel>
  </diagram>
</mxfile>
